<svg width="1278" height="539" viewBox="0 0 1278 539" fill="none" xmlns="http://www.w3.org/2000/svg">
<rect width="1278" height="539" fill="#2D493C"/>
<path d="M523.459 243.719C523.459 241.844 523.146 240.172 522.521 238.703C521.896 237.234 520.865 235.922 519.428 234.766C518.021 233.578 516.115 232.484 513.709 231.484C511.334 230.453 508.365 229.438 504.803 228.438C501.396 227.469 498.318 226.406 495.568 225.25C492.818 224.094 490.459 222.766 488.49 221.266C486.553 219.766 485.068 218.016 484.037 216.016C483.006 213.984 482.49 211.625 482.49 208.938C482.49 206.312 483.053 203.922 484.178 201.766C485.303 199.609 486.881 197.75 488.912 196.188C490.975 194.625 493.396 193.422 496.178 192.578C498.99 191.734 502.068 191.312 505.412 191.312C510.193 191.312 514.318 192.219 517.787 194.031C521.287 195.844 523.99 198.297 525.896 201.391C527.834 204.453 528.803 207.891 528.803 211.703H523.037C523.037 208.734 522.334 206.094 520.928 203.781C519.553 201.438 517.553 199.609 514.928 198.297C512.334 196.953 509.162 196.281 505.412 196.281C501.662 196.281 498.506 196.859 495.943 198.016C493.412 199.141 491.49 200.656 490.178 202.562C488.896 204.438 488.256 206.531 488.256 208.844C488.256 210.469 488.568 211.969 489.193 213.344C489.818 214.688 490.834 215.953 492.24 217.141C493.678 218.297 495.568 219.391 497.912 220.422C500.256 221.422 503.146 222.375 506.584 223.281C510.209 224.281 513.428 225.391 516.24 226.609C519.053 227.828 521.428 229.234 523.365 230.828C525.303 232.391 526.771 234.219 527.771 236.312C528.771 238.406 529.271 240.844 529.271 243.625C529.271 246.406 528.678 248.906 527.49 251.125C526.334 253.312 524.693 255.172 522.568 256.703C520.475 258.234 517.99 259.406 515.115 260.219C512.271 261.031 509.162 261.438 505.787 261.438C502.756 261.438 499.74 261.047 496.74 260.266C493.74 259.484 490.99 258.281 488.49 256.656C486.021 255 484.037 252.875 482.537 250.281C481.068 247.688 480.334 244.594 480.334 241H486.053C486.053 243.875 486.631 246.297 487.787 248.266C488.943 250.234 490.475 251.828 492.381 253.047C494.318 254.266 496.443 255.156 498.756 255.719C501.1 256.25 503.443 256.516 505.787 256.516C509.381 256.516 512.49 255.984 515.115 254.922C517.771 253.859 519.818 252.375 521.256 250.469C522.725 248.531 523.459 246.281 523.459 243.719ZM559.131 256.609C561.506 256.609 563.725 256.172 565.787 255.297C567.881 254.391 569.6 253.062 570.943 251.312C572.318 249.531 573.1 247.359 573.287 244.797H578.631C578.475 248.016 577.49 250.891 575.678 253.422C573.896 255.922 571.553 257.891 568.646 259.328C565.771 260.734 562.6 261.438 559.131 261.438C555.6 261.438 552.475 260.797 549.756 259.516C547.068 258.234 544.818 256.453 543.006 254.172C541.193 251.859 539.818 249.172 538.881 246.109C537.975 243.016 537.521 239.688 537.521 236.125V234.156C537.521 230.594 537.975 227.281 538.881 224.219C539.818 221.125 541.193 218.438 543.006 216.156C544.818 213.844 547.068 212.047 549.756 210.766C552.443 209.484 555.553 208.844 559.084 208.844C562.709 208.844 565.959 209.578 568.834 211.047C571.74 212.516 574.053 214.594 575.771 217.281C577.521 219.969 578.475 223.156 578.631 226.844H573.287C573.131 224.125 572.412 221.781 571.131 219.812C569.85 217.844 568.162 216.328 566.068 215.266C563.975 214.203 561.646 213.672 559.084 213.672C556.209 213.672 553.756 214.234 551.725 215.359C549.693 216.453 548.037 217.969 546.756 219.906C545.506 221.812 544.584 224 543.99 226.469C543.396 228.906 543.1 231.469 543.1 234.156V236.125C543.1 238.844 543.381 241.438 543.943 243.906C544.537 246.344 545.459 248.516 546.709 250.422C547.99 252.328 549.646 253.844 551.678 254.969C553.74 256.062 556.225 256.609 559.131 256.609ZM595.506 188.5V260.5H589.928V188.5H595.506ZM594.24 232L591.756 230.594C591.943 227.594 592.553 224.781 593.584 222.156C594.615 219.531 596.006 217.219 597.756 215.219C599.537 213.219 601.615 211.656 603.99 210.531C606.396 209.406 609.053 208.844 611.959 208.844C614.49 208.844 616.756 209.188 618.756 209.875C620.756 210.562 622.459 211.656 623.865 213.156C625.271 214.656 626.334 216.578 627.053 218.922C627.803 221.266 628.178 224.125 628.178 227.5V260.5H622.553V227.453C622.553 223.953 622.068 221.219 621.1 219.25C620.131 217.25 618.756 215.828 616.975 214.984C615.193 214.141 613.084 213.719 610.646 213.719C607.959 213.719 605.6 214.312 603.568 215.5C601.568 216.656 599.881 218.172 598.506 220.047C597.162 221.891 596.131 223.875 595.412 226C594.693 228.094 594.303 230.094 594.24 232ZM639.521 235.938V234.391C639.521 230.703 640.053 227.297 641.115 224.172C642.178 221.047 643.693 218.344 645.662 216.062C647.662 213.781 650.053 212.016 652.834 210.766C655.615 209.484 658.709 208.844 662.115 208.844C665.553 208.844 668.662 209.484 671.443 210.766C674.225 212.016 676.615 213.781 678.615 216.062C680.615 218.344 682.146 221.047 683.209 224.172C684.271 227.297 684.803 230.703 684.803 234.391V235.938C684.803 239.625 684.271 243.031 683.209 246.156C682.146 249.25 680.615 251.938 678.615 254.219C676.646 256.5 674.271 258.281 671.49 259.562C668.709 260.812 665.615 261.438 662.209 261.438C658.771 261.438 655.662 260.812 652.881 259.562C650.1 258.281 647.709 256.5 645.709 254.219C643.709 251.938 642.178 249.25 641.115 246.156C640.053 243.031 639.521 239.625 639.521 235.938ZM645.1 234.391V235.938C645.1 238.719 645.475 241.359 646.225 243.859C646.975 246.328 648.068 248.531 649.506 250.469C650.943 252.375 652.725 253.875 654.85 254.969C656.975 256.062 659.428 256.609 662.209 256.609C664.959 256.609 667.381 256.062 669.475 254.969C671.6 253.875 673.381 252.375 674.818 250.469C676.256 248.531 677.334 246.328 678.053 243.859C678.803 241.359 679.178 238.719 679.178 235.938V234.391C679.178 231.641 678.803 229.031 678.053 226.562C677.334 224.094 676.24 221.891 674.771 219.953C673.334 218.016 671.553 216.484 669.428 215.359C667.303 214.234 664.865 213.672 662.115 213.672C659.365 213.672 656.928 214.234 654.803 215.359C652.709 216.484 650.928 218.016 649.459 219.953C648.021 221.891 646.928 224.094 646.178 226.562C645.459 229.031 645.1 231.641 645.1 234.391ZM693.334 235.938V234.391C693.334 230.703 693.865 227.297 694.928 224.172C695.99 221.047 697.506 218.344 699.475 216.062C701.475 213.781 703.865 212.016 706.646 210.766C709.428 209.484 712.521 208.844 715.928 208.844C719.365 208.844 722.475 209.484 725.256 210.766C728.037 212.016 730.428 213.781 732.428 216.062C734.428 218.344 735.959 221.047 737.021 224.172C738.084 227.297 738.615 230.703 738.615 234.391V235.938C738.615 239.625 738.084 243.031 737.021 246.156C735.959 249.25 734.428 251.938 732.428 254.219C730.459 256.5 728.084 258.281 725.303 259.562C722.521 260.812 719.428 261.438 716.021 261.438C712.584 261.438 709.475 260.812 706.693 259.562C703.912 258.281 701.521 256.5 699.521 254.219C697.521 251.938 695.99 249.25 694.928 246.156C693.865 243.031 693.334 239.625 693.334 235.938ZM698.912 234.391V235.938C698.912 238.719 699.287 241.359 700.037 243.859C700.787 246.328 701.881 248.531 703.318 250.469C704.756 252.375 706.537 253.875 708.662 254.969C710.787 256.062 713.24 256.609 716.021 256.609C718.771 256.609 721.193 256.062 723.287 254.969C725.412 253.875 727.193 252.375 728.631 250.469C730.068 248.531 731.146 246.328 731.865 243.859C732.615 241.359 732.99 238.719 732.99 235.938V234.391C732.99 231.641 732.615 229.031 731.865 226.562C731.146 224.094 730.053 221.891 728.584 219.953C727.146 218.016 725.365 216.484 723.24 215.359C721.115 214.234 718.678 213.672 715.928 213.672C713.178 213.672 710.74 214.234 708.615 215.359C706.521 216.484 704.74 218.016 703.271 219.953C701.834 221.891 700.74 224.094 699.99 226.562C699.271 229.031 698.912 231.641 698.912 234.391ZM756.475 188.5V260.5H750.896V188.5H756.475ZM792.146 235.938V234.391C792.146 230.703 792.678 227.297 793.74 224.172C794.803 221.047 796.318 218.344 798.287 216.062C800.287 213.781 802.678 212.016 805.459 210.766C808.24 209.484 811.334 208.844 814.74 208.844C818.178 208.844 821.287 209.484 824.068 210.766C826.85 212.016 829.24 213.781 831.24 216.062C833.24 218.344 834.771 221.047 835.834 224.172C836.896 227.297 837.428 230.703 837.428 234.391V235.938C837.428 239.625 836.896 243.031 835.834 246.156C834.771 249.25 833.24 251.938 831.24 254.219C829.271 256.5 826.896 258.281 824.115 259.562C821.334 260.812 818.24 261.438 814.834 261.438C811.396 261.438 808.287 260.812 805.506 259.562C802.725 258.281 800.334 256.5 798.334 254.219C796.334 251.938 794.803 249.25 793.74 246.156C792.678 243.031 792.146 239.625 792.146 235.938ZM797.725 234.391V235.938C797.725 238.719 798.1 241.359 798.85 243.859C799.6 246.328 800.693 248.531 802.131 250.469C803.568 252.375 805.35 253.875 807.475 254.969C809.6 256.062 812.053 256.609 814.834 256.609C817.584 256.609 820.006 256.062 822.1 254.969C824.225 253.875 826.006 252.375 827.443 250.469C828.881 248.531 829.959 246.328 830.678 243.859C831.428 241.359 831.803 238.719 831.803 235.938V234.391C831.803 231.641 831.428 229.031 830.678 226.562C829.959 224.094 828.865 221.891 827.396 219.953C825.959 218.016 824.178 216.484 822.053 215.359C819.928 214.234 817.49 213.672 814.74 213.672C811.99 213.672 809.553 214.234 807.428 215.359C805.334 216.484 803.553 218.016 802.084 219.953C800.646 221.891 799.553 224.094 798.803 226.562C798.084 229.031 797.725 231.641 797.725 234.391ZM858.662 260.5H853.084V203.5C853.084 200.031 853.678 197.109 854.865 194.734C856.084 192.359 857.803 190.562 860.021 189.344C862.271 188.125 864.943 187.516 868.037 187.516C869.006 187.516 870.006 187.578 871.037 187.703C872.068 187.797 873.068 188 874.037 188.312L873.615 193.047C872.834 192.828 872.037 192.688 871.225 192.625C870.443 192.531 869.521 192.484 868.459 192.484C866.428 192.484 864.678 192.922 863.209 193.797C861.74 194.641 860.615 195.875 859.834 197.5C859.053 199.125 858.662 201.125 858.662 203.5V260.5ZM870.756 209.781V214.375H844.693V209.781H870.756ZM907.365 192.25H913.178L938.396 252.344L963.662 192.25H969.428L940.6 260.5H936.193L907.365 192.25ZM905.584 192.25H910.693L911.303 230.688V260.5H905.584V192.25ZM966.193 192.25H971.303V260.5H965.537V230.688L966.193 192.25ZM1011.9 196.328L988.271 260.5H982.271L1008.05 192.25H1012.22L1011.9 196.328ZM1033.37 260.5L1009.69 196.328L1009.37 192.25H1013.54L1039.37 260.5H1033.37ZM1029.15 236.406V241.375H992.912V236.406H1029.15ZM1066.27 192.25V260.5H1060.55V192.25H1066.27ZM1089.66 192.25V197.219H1037.21V192.25H1089.66ZM1146.66 222.859V227.781H1105.18V222.859H1146.66ZM1106.54 192.25V260.5H1100.77V192.25H1106.54ZM1151.3 192.25V260.5H1145.54V192.25H1151.3ZM507.709 305.25V373.5H501.99V305.25H507.709ZM531.1 305.25V310.219H478.646V305.25H531.1ZM555.803 374.438C552.49 374.438 549.443 373.828 546.662 372.609C543.912 371.391 541.506 369.672 539.443 367.453C537.412 365.234 535.834 362.609 534.709 359.578C533.615 356.516 533.068 353.172 533.068 349.547V347.531C533.068 343.625 533.646 340.094 534.803 336.938C535.959 333.781 537.553 331.078 539.584 328.828C541.615 326.578 543.928 324.859 546.521 323.672C549.146 322.453 551.896 321.844 554.771 321.844C557.99 321.844 560.85 322.422 563.35 323.578C565.85 324.703 567.943 326.312 569.631 328.406C571.35 330.469 572.646 332.922 573.521 335.766C574.396 338.578 574.834 341.688 574.834 345.094V348.516H536.443V343.734H569.256V343.078C569.193 340.234 568.615 337.578 567.521 335.109C566.459 332.609 564.865 330.578 562.74 329.016C560.615 327.453 557.959 326.672 554.771 326.672C552.396 326.672 550.209 327.172 548.209 328.172C546.24 329.172 544.537 330.609 543.1 332.484C541.693 334.328 540.6 336.531 539.818 339.094C539.068 341.625 538.693 344.438 538.693 347.531V349.547C538.693 352.359 539.1 354.984 539.912 357.422C540.756 359.828 541.943 361.953 543.475 363.797C545.037 365.641 546.881 367.078 549.006 368.109C551.131 369.141 553.475 369.656 556.037 369.656C559.037 369.656 561.693 369.109 564.006 368.016C566.318 366.891 568.396 365.125 570.24 362.719L573.756 365.438C572.662 367.062 571.287 368.562 569.631 369.938C568.006 371.312 566.053 372.406 563.771 373.219C561.49 374.031 558.834 374.438 555.803 374.438ZM592.131 301.5V373.5H586.553V301.5H592.131ZM627.053 374.438C623.74 374.438 620.693 373.828 617.912 372.609C615.162 371.391 612.756 369.672 610.693 367.453C608.662 365.234 607.084 362.609 605.959 359.578C604.865 356.516 604.318 353.172 604.318 349.547V347.531C604.318 343.625 604.896 340.094 606.053 336.938C607.209 333.781 608.803 331.078 610.834 328.828C612.865 326.578 615.178 324.859 617.771 323.672C620.396 322.453 623.146 321.844 626.021 321.844C629.24 321.844 632.1 322.422 634.6 323.578C637.1 324.703 639.193 326.312 640.881 328.406C642.6 330.469 643.896 332.922 644.771 335.766C645.646 338.578 646.084 341.688 646.084 345.094V348.516H607.693V343.734H640.506V343.078C640.443 340.234 639.865 337.578 638.771 335.109C637.709 332.609 636.115 330.578 633.99 329.016C631.865 327.453 629.209 326.672 626.021 326.672C623.646 326.672 621.459 327.172 619.459 328.172C617.49 329.172 615.787 330.609 614.35 332.484C612.943 334.328 611.85 336.531 611.068 339.094C610.318 341.625 609.943 344.438 609.943 347.531V349.547C609.943 352.359 610.35 354.984 611.162 357.422C612.006 359.828 613.193 361.953 614.725 363.797C616.287 365.641 618.131 367.078 620.256 368.109C622.381 369.141 624.725 369.656 627.287 369.656C630.287 369.656 632.943 369.109 635.256 368.016C637.568 366.891 639.646 365.125 641.49 362.719L645.006 365.438C643.912 367.062 642.537 368.562 640.881 369.938C639.256 371.312 637.303 372.406 635.021 373.219C632.74 374.031 630.084 374.438 627.053 374.438ZM690.521 322.781H695.725V372.609C695.725 377.016 694.881 380.797 693.193 383.953C691.537 387.109 689.178 389.531 686.115 391.219C683.084 392.906 679.506 393.75 675.381 393.75C673.287 393.75 671.131 393.422 668.912 392.766C666.725 392.141 664.646 391.172 662.678 389.859C660.74 388.578 659.084 386.984 657.709 385.078L660.85 381.656C662.912 384.156 665.115 385.984 667.459 387.141C669.803 388.328 672.334 388.922 675.053 388.922C678.271 388.922 680.99 388.281 683.209 387C685.459 385.719 687.162 383.875 688.318 381.469C689.506 379.062 690.1 376.172 690.1 372.797V333.938L690.521 322.781ZM654.896 348.656V347.672C654.896 343.734 655.334 340.188 656.209 337.031C657.115 333.844 658.412 331.125 660.1 328.875C661.787 326.594 663.834 324.859 666.24 323.672C668.678 322.453 671.428 321.844 674.49 321.844C677.428 321.844 680.037 322.328 682.318 323.297C684.6 324.266 686.568 325.656 688.225 327.469C689.881 329.281 691.209 331.438 692.209 333.938C693.24 336.438 693.99 339.219 694.459 342.281V354.797C694.084 357.672 693.396 360.312 692.396 362.719C691.396 365.094 690.068 367.172 688.412 368.953C686.756 370.703 684.756 372.062 682.412 373.031C680.1 373.969 677.428 374.438 674.396 374.438C671.365 374.438 668.646 373.812 666.24 372.562C663.834 371.312 661.787 369.547 660.1 367.266C658.412 364.953 657.115 362.219 656.209 359.062C655.334 355.906 654.896 352.438 654.896 348.656ZM660.521 347.672V348.656C660.521 351.625 660.818 354.375 661.412 356.906C662.006 359.438 662.912 361.641 664.131 363.516C665.35 365.391 666.896 366.859 668.771 367.922C670.646 368.984 672.85 369.516 675.381 369.516C678.6 369.516 681.303 368.906 683.49 367.688C685.678 366.438 687.412 364.797 688.693 362.766C689.975 360.703 690.912 358.453 691.506 356.016V341.438C691.162 339.781 690.631 338.094 689.912 336.375C689.225 334.656 688.256 333.078 687.006 331.641C685.787 330.172 684.225 329 682.318 328.125C680.443 327.219 678.162 326.766 675.475 326.766C672.912 326.766 670.678 327.297 668.771 328.359C666.896 329.422 665.35 330.906 664.131 332.812C662.912 334.688 662.006 336.891 661.412 339.422C660.818 341.953 660.521 344.703 660.521 347.672ZM715.975 331.172V373.5H710.396V322.781H715.834L715.975 331.172ZM733.928 322.406L733.787 327.562C733.162 327.469 732.553 327.391 731.959 327.328C731.365 327.266 730.725 327.234 730.037 327.234C727.6 327.234 725.459 327.688 723.615 328.594C721.803 329.469 720.271 330.703 719.021 332.297C717.771 333.859 716.818 335.703 716.162 337.828C715.506 339.922 715.131 342.172 715.037 344.578L712.975 345.375C712.975 342.062 713.318 338.984 714.006 336.141C714.693 333.297 715.74 330.812 717.146 328.688C718.584 326.531 720.381 324.859 722.537 323.672C724.725 322.453 727.287 321.844 730.225 321.844C730.943 321.844 731.646 321.906 732.334 322.031C733.053 322.125 733.584 322.25 733.928 322.406ZM771.709 364.406V338.25C771.709 335.844 771.209 333.766 770.209 332.016C769.209 330.266 767.74 328.922 765.803 327.984C763.865 327.047 761.475 326.578 758.631 326.578C756.006 326.578 753.662 327.047 751.6 327.984C749.568 328.891 747.959 330.125 746.771 331.688C745.615 333.219 745.037 334.922 745.037 336.797L739.412 336.75C739.412 334.844 739.881 333 740.818 331.219C741.756 329.438 743.084 327.844 744.803 326.438C746.521 325.031 748.568 323.922 750.943 323.109C753.35 322.266 755.99 321.844 758.865 321.844C762.49 321.844 765.678 322.453 768.428 323.672C771.209 324.891 773.381 326.719 774.943 329.156C776.506 331.594 777.287 334.656 777.287 338.344V362.859C777.287 364.609 777.412 366.422 777.662 368.297C777.943 370.172 778.334 371.719 778.834 372.938V373.5H772.881C772.506 372.375 772.209 370.969 771.99 369.281C771.803 367.562 771.709 365.938 771.709 364.406ZM773.021 343.969L773.115 348.281H762.1C759.225 348.281 756.646 348.547 754.365 349.078C752.115 349.578 750.209 350.328 748.646 351.328C747.084 352.297 745.881 353.469 745.037 354.844C744.225 356.219 743.818 357.781 743.818 359.531C743.818 361.344 744.271 363 745.178 364.5C746.115 366 747.428 367.203 749.115 368.109C750.834 368.984 752.865 369.422 755.209 369.422C758.334 369.422 761.084 368.844 763.459 367.688C765.865 366.531 767.85 365.016 769.412 363.141C770.975 361.266 772.021 359.219 772.553 357L774.99 360.234C774.584 361.797 773.834 363.406 772.74 365.062C771.678 366.688 770.287 368.219 768.568 369.656C766.85 371.062 764.818 372.219 762.475 373.125C760.162 374 757.537 374.438 754.6 374.438C751.287 374.438 748.396 373.812 745.928 372.562C743.49 371.312 741.584 369.609 740.209 367.453C738.865 365.266 738.193 362.797 738.193 360.047C738.193 357.547 738.725 355.312 739.787 353.344C740.85 351.344 742.381 349.656 744.381 348.281C746.412 346.875 748.85 345.812 751.693 345.094C754.568 344.344 757.787 343.969 761.35 343.969H773.021ZM797.631 333.281V373.5H792.006V322.781H797.396L797.631 333.281ZM796.6 345L793.881 343.594C794.068 340.594 794.631 337.781 795.568 335.156C796.537 332.531 797.881 330.219 799.6 328.219C801.318 326.219 803.381 324.656 805.787 323.531C808.193 322.406 810.928 321.844 813.99 321.844C816.459 321.844 818.693 322.188 820.693 322.875C822.725 323.531 824.443 324.578 825.85 326.016C827.287 327.422 828.396 329.266 829.178 331.547C829.959 333.828 830.35 336.562 830.35 339.75V373.5H824.771V339.938C824.771 336.562 824.24 333.922 823.178 332.016C822.146 330.109 820.693 328.75 818.818 327.938C816.975 327.125 814.834 326.719 812.396 326.719C809.521 326.719 807.084 327.312 805.084 328.5C803.115 329.656 801.506 331.172 800.256 333.047C799.037 334.891 798.131 336.875 797.537 339C796.943 341.094 796.631 343.094 796.6 345ZM830.303 340.594L826.553 340.688C826.709 338.219 827.271 335.859 828.24 333.609C829.24 331.359 830.6 329.359 832.318 327.609C834.037 325.828 836.084 324.422 838.459 323.391C840.865 322.359 843.568 321.844 846.568 321.844C849.193 321.844 851.537 322.203 853.6 322.922C855.662 323.609 857.396 324.719 858.803 326.25C860.24 327.75 861.334 329.672 862.084 332.016C862.834 334.359 863.209 337.172 863.209 340.453V373.5H857.584V340.406C857.584 336.812 857.053 334.031 855.99 332.062C854.959 330.062 853.521 328.672 851.678 327.891C849.834 327.109 847.678 326.719 845.209 326.719C842.771 326.75 840.631 327.203 838.787 328.078C836.943 328.922 835.396 330.047 834.146 331.453C832.928 332.828 831.99 334.312 831.334 335.906C830.709 337.5 830.365 339.062 830.303 340.594ZM925.693 340.688H906.475L906.381 335.812H922.928C926.303 335.812 929.178 335.328 931.553 334.359C933.928 333.391 935.725 331.953 936.943 330.047C938.193 328.109 938.818 325.734 938.818 322.922C938.818 320.047 938.209 317.672 936.99 315.797C935.771 313.891 933.943 312.484 931.506 311.578C929.068 310.672 926.006 310.219 922.318 310.219H907.975V373.5H902.209V305.25H922.318C925.787 305.25 928.896 305.594 931.646 306.281C934.396 306.969 936.74 308.047 938.678 309.516C940.615 310.984 942.084 312.844 943.084 315.094C944.115 317.312 944.631 319.969 944.631 323.062C944.631 325.875 944.006 328.422 942.756 330.703C941.506 332.953 939.74 334.797 937.459 336.234C935.209 337.641 932.506 338.516 929.35 338.859L925.693 340.688ZM925.271 373.5H904.646L907.6 368.578H925.271C928.646 368.578 931.521 368.016 933.896 366.891C936.303 365.734 938.146 364.094 939.428 361.969C940.709 359.844 941.35 357.312 941.35 354.375C941.35 351.781 940.787 349.453 939.662 347.391C938.537 345.328 936.818 343.703 934.506 342.516C932.193 341.297 929.256 340.688 925.693 340.688H913.74L913.834 335.812H930.756L931.787 337.547C934.85 337.859 937.521 338.812 939.803 340.406C942.115 341.969 943.896 343.953 945.146 346.359C946.428 348.766 947.068 351.406 947.068 354.281C947.068 358.406 946.146 361.906 944.303 364.781C942.49 367.625 939.943 369.797 936.662 371.297C933.412 372.766 929.615 373.5 925.271 373.5ZM956.678 348.938V347.391C956.678 343.703 957.209 340.297 958.271 337.172C959.334 334.047 960.85 331.344 962.818 329.062C964.818 326.781 967.209 325.016 969.99 323.766C972.771 322.484 975.865 321.844 979.271 321.844C982.709 321.844 985.818 322.484 988.6 323.766C991.381 325.016 993.771 326.781 995.771 329.062C997.771 331.344 999.303 334.047 1000.37 337.172C1001.43 340.297 1001.96 343.703 1001.96 347.391V348.938C1001.96 352.625 1001.43 356.031 1000.37 359.156C999.303 362.25 997.771 364.938 995.771 367.219C993.803 369.5 991.428 371.281 988.646 372.562C985.865 373.812 982.771 374.438 979.365 374.438C975.928 374.438 972.818 373.812 970.037 372.562C967.256 371.281 964.865 369.5 962.865 367.219C960.865 364.938 959.334 362.25 958.271 359.156C957.209 356.031 956.678 352.625 956.678 348.938ZM962.256 347.391V348.938C962.256 351.719 962.631 354.359 963.381 356.859C964.131 359.328 965.225 361.531 966.662 363.469C968.1 365.375 969.881 366.875 972.006 367.969C974.131 369.062 976.584 369.609 979.365 369.609C982.115 369.609 984.537 369.062 986.631 367.969C988.756 366.875 990.537 365.375 991.975 363.469C993.412 361.531 994.49 359.328 995.209 356.859C995.959 354.359 996.334 351.719 996.334 348.938V347.391C996.334 344.641 995.959 342.031 995.209 339.562C994.49 337.094 993.396 334.891 991.928 332.953C990.49 331.016 988.709 329.484 986.584 328.359C984.459 327.234 982.021 326.672 979.271 326.672C976.521 326.672 974.084 327.234 971.959 328.359C969.865 329.484 968.084 331.016 966.615 332.953C965.178 334.891 964.084 337.094 963.334 339.562C962.615 342.031 962.256 344.641 962.256 347.391ZM1032.76 322.781V327.375H1007.35V322.781H1032.76ZM1016.68 309.75H1022.26V361.172C1022.26 363.516 1022.57 365.281 1023.19 366.469C1023.82 367.656 1024.63 368.453 1025.63 368.859C1026.63 369.266 1027.71 369.469 1028.87 369.469C1029.71 369.469 1030.52 369.422 1031.3 369.328C1032.08 369.203 1032.79 369.078 1033.41 368.953L1033.65 373.688C1032.96 373.906 1032.07 374.078 1030.97 374.203C1029.88 374.359 1028.79 374.438 1027.69 374.438C1025.54 374.438 1023.63 374.047 1021.97 373.266C1020.32 372.453 1019.02 371.078 1018.08 369.141C1017.15 367.172 1016.68 364.5 1016.68 361.125V309.75Z" fill="white"/>
<path fill-rule="evenodd" clip-rule="evenodd" d="M219.382 103.605C204.961 103.605 190.574 108.522 178.858 118.353C171.806 124.271 166.356 131.47 162.57 139.354C162.045 139.304 161.534 139.191 160.995 139.191C151.576 139.191 143.992 146.774 143.992 156.193V177.206C143.992 186.624 151.576 194.208 160.995 194.208C161.534 194.208 162.045 194.091 162.57 194.044C163.248 195.449 163.949 196.843 164.74 198.213C167.829 203.727 176.083 199.006 172.896 193.548C159.846 170.945 164.9 142.303 184.893 125.527C204.886 108.75 233.926 108.75 253.919 125.527C273.912 142.303 278.966 170.944 265.916 193.548L265.776 193.782L265.682 194.016C265.682 194.016 259.344 208.037 246.898 208.037L231.144 207.896C229.667 205.738 227.303 204.236 224.479 204.236H214.324C209.771 204.236 206.108 207.911 206.108 212.464C206.108 215.273 207.89 217.406 211.968 217.406L246.898 217.409C265.574 217.409 273.652 199.074 274.019 198.225V198.175C274.803 196.817 275.492 195.423 276.165 194.031C276.714 194.081 277.248 194.195 277.814 194.195C287.232 194.195 294.816 186.611 294.816 177.193V156.179C294.816 146.761 287.232 139.177 277.814 139.177C277.27 139.177 276.756 139.267 276.226 139.341C272.45 131.456 267.016 124.257 259.963 118.34C248.247 108.508 233.8 103.592 219.379 103.592L219.382 103.605ZM198.89 133.477C195.229 133.238 191.886 134.012 188.965 137.088C181.174 145.29 176.361 156.454 176.361 168.342C176.361 178.148 179.639 189.136 185.159 189.537C193.024 190.109 205.436 184.944 219.406 184.944C234.21 184.944 247.274 190.739 255.022 189.367C259.717 188.537 262.463 177.314 262.463 168.342C262.463 156.454 257.638 145.29 249.847 137.088C242.057 128.886 231.294 137.088 219.406 137.088C211.976 137.088 204.99 133.878 198.89 133.477V133.477ZM197.145 153.691C201.488 153.692 205.008 157.212 205.01 161.556C205.008 165.899 201.488 169.419 197.145 169.42C192.802 169.419 189.281 165.899 189.28 161.556C189.281 157.212 192.802 153.692 197.145 153.691V153.691ZM241.668 153.691C246.011 153.692 249.531 157.212 249.533 161.556C249.531 165.899 246.011 169.419 241.668 169.42C237.325 169.419 233.805 165.899 233.803 161.556C233.805 157.212 237.325 153.692 241.668 153.691Z" fill="url(#paint0_linear_104_231)"/>
<path d="M92.8842 311.468L98.0682 319.724L52.8842 347.436L98.0682 375.404L92.3082 383.276L43.6682 352.876V341.868L92.8842 311.468Z" fill="#FFF067"/>
<path d="M123.842 308.75V377H118.076V308.75H123.842ZM155.623 340.156V345.125H121.92V340.156H155.623ZM160.357 308.75V313.719H121.92V308.75H160.357ZM173.857 308.75H179.67L204.889 368.844L230.154 308.75H235.92L207.092 377H202.685L173.857 308.75ZM172.076 308.75H177.185L177.795 347.188V377H172.076V308.75ZM232.685 308.75H237.795V377H232.029V347.188L232.685 308.75ZM293.764 360.219C293.764 358.344 293.451 356.672 292.826 355.203C292.201 353.734 291.17 352.422 289.732 351.266C288.326 350.078 286.42 348.984 284.014 347.984C281.639 346.953 278.67 345.938 275.107 344.938C271.701 343.969 268.623 342.906 265.873 341.75C263.123 340.594 260.764 339.266 258.795 337.766C256.857 336.266 255.373 334.516 254.342 332.516C253.31 330.484 252.795 328.125 252.795 325.438C252.795 322.812 253.357 320.422 254.482 318.266C255.607 316.109 257.185 314.25 259.217 312.688C261.279 311.125 263.701 309.922 266.482 309.078C269.295 308.234 272.373 307.812 275.717 307.812C280.498 307.812 284.623 308.719 288.092 310.531C291.592 312.344 294.295 314.797 296.201 317.891C298.139 320.953 299.107 324.391 299.107 328.203H293.342C293.342 325.234 292.639 322.594 291.232 320.281C289.857 317.938 287.857 316.109 285.232 314.797C282.639 313.453 279.467 312.781 275.717 312.781C271.967 312.781 268.81 313.359 266.248 314.516C263.717 315.641 261.795 317.156 260.482 319.062C259.201 320.938 258.56 323.031 258.56 325.344C258.56 326.969 258.873 328.469 259.498 329.844C260.123 331.188 261.139 332.453 262.545 333.641C263.982 334.797 265.873 335.891 268.217 336.922C270.56 337.922 273.451 338.875 276.889 339.781C280.514 340.781 283.732 341.891 286.545 343.109C289.357 344.328 291.732 345.734 293.67 347.328C295.607 348.891 297.076 350.719 298.076 352.812C299.076 354.906 299.576 357.344 299.576 360.125C299.576 362.906 298.982 365.406 297.795 367.625C296.639 369.812 294.998 371.672 292.873 373.203C290.779 374.734 288.295 375.906 285.42 376.719C282.576 377.531 279.467 377.938 276.092 377.938C273.06 377.938 270.045 377.547 267.045 376.766C264.045 375.984 261.295 374.781 258.795 373.156C256.326 371.5 254.342 369.375 252.842 366.781C251.373 364.188 250.639 361.094 250.639 357.5H256.357C256.357 360.375 256.935 362.797 258.092 364.766C259.248 366.734 260.779 368.328 262.685 369.547C264.623 370.766 266.748 371.656 269.06 372.219C271.404 372.75 273.748 373.016 276.092 373.016C279.685 373.016 282.795 372.484 285.42 371.422C288.076 370.359 290.123 368.875 291.56 366.969C293.029 365.031 293.764 362.781 293.764 360.219ZM319.076 308.75V377H313.31V308.75H319.076Z" fill="#FAFDFF"/>
<path d="M345.852 311.468L395.068 341.868V352.876L346.492 383.276L340.668 375.34L385.852 347.436L340.668 319.596L345.852 311.468Z" fill="#FFF067"/>
<defs>
<linearGradient id="paint0_linear_104_231" x1="62.5084" y1="103.592" x2="332.91" y2="238.481" gradientUnits="userSpaceOnUse">
<stop offset="0.530952" stop-color="#046BBE"/>
<stop offset="0.855198" stop-color="#00FF89"/>
</linearGradient>
</defs>
</svg>
